<svg width="21" height="20" viewBox="0 0 21 20" fill="none" xmlns="http://www.w3.org/2000/svg">
<path d="M10.0137 6.75781C8.96875 4.83398 7.67969 2.87109 6.07812 0.927734C3.22656 2.24609 1.09766 4.86328 0.472656 8.00781C4.27148 7.93945 7.41602 7.51953 10.0137 6.75781ZM2.9043 16.7871C5.01367 13.5645 7.67969 11.3867 10.8242 10.2734C11.0781 10.1855 11.332 10.1172 11.5859 10.0488C11.3125 9.39453 11.0293 8.76953 10.707 8.125C7.88477 9.00391 4.45703 9.46289 0.267578 9.54102C0.267578 9.69727 0.267578 9.83398 0.267578 10C0.267578 12.6172 1.26367 15 2.9043 16.7871ZM14.2031 19.1895C13.8125 16.9238 13.207 14.2871 12.1426 11.4551C9.25195 12.2656 6.40039 14.1699 4.06641 17.8516C5.75586 19.1895 7.93359 20 10.2676 20C11.6543 20 12.9727 19.7266 14.2031 19.1895ZM20.1504 11.5039C18.207 11.0156 16.0293 10.791 13.832 11.1133C14.8086 13.7305 15.3848 16.1816 15.7754 18.3301C18.0898 16.8066 19.7305 14.3555 20.1504 11.5039ZM11.6543 6.20117C13.8516 5.32227 15.5898 4.12109 16.9375 2.56836C15.1797 0.976562 12.8359 0 10.2676 0C9.4082 0 8.57812 0.117188 7.76758 0.322266C9.33984 2.26562 10.6191 4.25781 11.6543 6.20117ZM20.2676 9.95117C20.248 7.56836 19.4082 5.37109 18.002 3.66211C16.5371 5.32227 14.6621 6.62109 12.3477 7.54883C12.6797 8.26172 13.002 8.95508 13.2754 9.64844C15.4531 9.28711 17.7871 9.39453 20.2676 9.95117Z" fill="white"/>
</svg>
