<svg width="40" height="40" viewBox="0 0 40 40" fill="none" xmlns="http://www.w3.org/2000/svg">
<path d="M26.6666 4.44385H22.2222V8.88824H26.6666V4.44385Z" fill="black"/>
<path d="M26.6667 17.7775V22.2219H31.1111V17.7775V13.3331V8.88867H26.6667V13.3331V17.7775Z" fill="black"/>
<path d="M26.6666 22.2227H22.2222V26.6671H26.6666V22.2227Z" fill="black"/>
<path d="M31.1111 26.6665H26.6667V31.1109H31.1111V26.6665Z" fill="black"/>
<path d="M35.5555 31.1108H31.1111V35.5552H35.5555V31.1108Z" fill="black"/>
<path d="M39.9999 35.5557H35.5555V40.0001H39.9999V35.5557Z" fill="black"/>
<path d="M4.44444 13.3331V8.88867H0V13.3331V17.7775V22.2219H4.44444V17.7775V13.3331Z" fill="black"/>
<path d="M8.88896 22.2227H4.44452V26.6671H8.88896V22.2227Z" fill="black"/>
<path d="M17.7778 4.4444H22.2222V0H17.7778H13.3334H8.88892V4.4444H13.3334H17.7778Z" fill="black"/>
<path d="M13.3334 26.6665H8.88892V31.1109H13.3334H17.7778H22.2222V26.6665H17.7778H13.3334Z" fill="black"/>
<path d="M8.88896 4.44385H4.44452V8.88824H8.88896V4.44385Z" fill="black"/>
</svg>
