<svg width="20" height="20" viewBox="0 0 20 20" fill="none" xmlns="http://www.w3.org/2000/svg">
<path d="M17.0801 0H2.91992C1.30859 0 0 1.30859 0 2.91992V17.0801C0 18.6914 1.30859 20 2.91992 20H17.0801C18.6914 20 20 18.6914 20 17.0801V2.91992C20 1.30859 18.6914 0 17.0801 0ZM10 6.25C12.0703 6.25 13.75 7.92969 13.75 10C13.75 12.0703 12.0703 13.75 10 13.75C7.92969 13.75 6.25 12.0703 6.25 10C6.25 7.92969 7.92969 6.25 10 6.25ZM17.9199 17.5C17.9199 17.7344 17.7344 17.9199 17.5 17.9199H2.5C2.26562 17.9199 2.08008 17.7344 2.08008 17.5V8.75H4.29688C4.20898 9.15039 4.16992 9.57031 4.16992 10C4.16992 13.2227 6.77734 15.8301 10 15.8301C13.2227 15.8301 15.8301 13.2227 15.8301 10C15.8301 9.57031 15.791 9.15039 15.7031 8.75H17.9199V17.5ZM17.9199 5C17.9199 5.23438 17.7344 5.41992 17.5 5.41992H15C14.7656 5.41992 14.5801 5.23438 14.5801 5V2.5C14.5801 2.26562 14.7656 2.08008 15 2.08008H17.5C17.7344 2.08008 17.9199 2.26562 17.9199 2.5V5Z" fill="white"/>
</svg>
